PathFileType	4	(X/Y/Z)	8_2_76_p0_0-433_filt_butterworth.trc
DataRate	CameraRate	NumFrames	NumMarkers	Units	OrigDataRate	OrigDataStartFrame	OrigNumFrames
60.0	60.0	6	27	m	60.0	270	433
Frame#	Time	RHip			RKnee			RAnkle			RBigToe			RSmallToe			RHeel			LHip			LKnee			LAnkle			LBigToe			LSmallToe			LHeel			Neck			Head			Nose			RShoulder			RElbow			RWrist			RThumb			RIndex			RPinky			LShoulder			LElbow			LWrist			LThumb			LIndex			LPinky			
		X1	Y1	Z1	X2	Y2	Z2	X3	Y3	Z3	X4	Y4	Z4	X5	Y5	Z5	X6	Y6	Z6	X7	Y7	Z7	X8	Y8	Z8	X9	Y9	Z9	X10	Y10	Z10	X11	Y11	Z11	X12	Y12	Z12	X13	Y13	Z13	X14	Y14	Z14	X15	Y15	Z15	X16	Y16	Z16	X17	Y17	Z17	X18	Y18	Z18	X19	Y19	Z19	X20	Y20	Z20	X21	Y21	Z21	X22	Y22	Z22	X23	Y23	Z23	X24	Y24	Z24	X25	Y25	Z25	X26	Y26	Z26	X27	Y27	Z27	
270	4.5	0.30382832517247116	0.6042251494395335	0.8486613732419483	0.2810270536199163	0.7314704783188781	1.2917465908081145	0.24790114625945814	0.9263634347118841	1.7065686610807331	0.22358869560452327	0.6847570838853573	1.7633111381201554	0.2876026765366913	0.7847808795290091	1.7831550932425804	0.21809649554296334	0.9751993842457938	1.7569073093612548	0.11297848693013907	0.5220319016084711	0.8310641563863189	0.07279795129862326	0.7044974989837579	1.2670112529704598	0.05953103407428281	0.9102465502532293	1.7113507025859316	0.05060704033145407	0.7419347463483185	1.7882467803698736	-0.002072069363309336	0.7308343262237967	1.7483003524756797	0.06346341211892298	1.0159979662653988	1.7745523936965246	0.3097132332508291	0.4267928281169945	0.2521593253427062	0.4265746221940924	0.3375577284162421	0.04176682492575011	0.4073401084576243	0.3406757689432529	0.17568683803489066	0.43678720621290756	0.5697548857336839	0.3522238016647491	0.4481286942747635	0.663600919246895	0.638574910133877	0.43461820199095	0.6685410328336836	0.9044541335206477	0.4000800506042348	0.6113068549847782	1.0019979163013724	0.40986304220726	0.6027260234870377	1.0177876035603077	0.40091983289932165	0.6528453540293563	1.0158746843227224	0.11982619143764273	0.40327533616439026	0.30949388905475234	0.031053412185398515	0.4610942419924246	0.5802703950852376	0.04161280250486967	0.42186667302096503	0.8499856895039877	0.07018192118914399	0.43059999697926726	0.9519113298159776	0.05787854458352226	0.4154627910498508	0.9832545917822968	0.013503480095129798	0.48712138346973816	0.9835811818029723
271	4.516666666666667	0.30519553172944525	0.6042735943044876	0.84868741401619	0.2814477660147011	0.7322143157012586	1.2918962522558513	0.24801895331153243	0.9198851628194382	1.7060520439515052	0.22352155452564187	0.6846494953891147	1.7633922993758875	0.28765976710775926	0.7854936237322004	1.785057161924583	0.21720688100067942	0.9758207430514769	1.7579959070153954	0.11400662350428754	0.5215760072673125	0.8304642555234933	0.0750247251638237	0.7041338506308762	1.265501482747284	0.05958245482849675	0.9078418174803398	1.706516854510086	0.05007247964769088	0.7438951522928721	1.7871476307999419	-0.002127898296916445	0.7307835363795249	1.7482223767395852	0.0632479507341451	1.0151735610771178	1.7720802987575257	0.31053327827991617	0.4276384929676994	0.24908113382206584	0.42546020625839875	0.33839646111016847	0.038764191498691716	0.4070636922456996	0.3389882912339325	0.16971912097149083	0.4389982939265785	0.5689123695855088	0.35182064985626116	0.44895161521020244	0.6647114267785059	0.6372520226721333	0.43869831443983637	0.6724706164276708	0.9048760808603719	0.40045979685762667	0.6096462469435734	1.0015952146454774	0.4110626198450243	0.5968543402410346	1.0152222939075688	0.40242148619108525	0.6526490004007279	1.0150506971820201	0.12052365793331057	0.40602035946317877	0.3092723985554064	0.03258907203381349	0.4639091251891628	0.5790265398405994	0.041498433386808364	0.4223696797838479	0.8481330678541462	0.07106893376687082	0.43064396203272315	0.950552200016465	0.05800337513278279	0.41523392430210593	0.9828553646995898	0.013962893761701364	0.48655931159379123	0.9809755646630807
272	4.533333333333333	0.30542268014885887	0.6047492086895163	0.8487325533785954	0.2816983286141892	0.7341794907094158	1.2894185668348093	0.24845192659547044	0.9148515646361305	1.7052158849920298	0.22348585223913364	0.6846007800540103	1.763392043480123	0.2877317230084028	0.7861621365231864	1.7866984996036341	0.21683094690656324	0.9758287289186066	1.7586649033937678	0.11479829991025603	0.5213520348405685	0.830229345926677	0.07595751768255815	0.7039563315452252	1.2646920883618418	0.05964590377526287	0.9060261968048126	1.7027097049468658	0.05007342030757163	0.744117381725949	1.7865162980571023	-0.0021529509387294326	0.7306705841619573	1.748111234663464	0.06294243417941907	1.0144457928463717	1.771185866178162	0.3105973143033295	0.42764990199029806	0.24793006302579834	0.4247471864782869	0.33813774219237475	0.037331638815292625	0.4068315182877778	0.3375890844361237	0.16634446976204523	0.43959066382390577	0.5688484621149668	0.35186081560193716	0.4488810813696432	0.6645054659236027	0.6362687631988312	0.4434397134594195	0.6687496195332935	0.9045284556072406	0.4020967583278132	0.6040572660205454	1.0004322400100465	0.4137497611483334	0.5860800173356204	1.0127376086591298	0.4039474372332119	0.6507789987042545	1.0146592424704726	0.1214082207900415	0.4093970789776245	0.30895553112125235	0.03385483626962497	0.4679051523490557	0.578774140731646	0.041362368968182905	0.4226619740618439	0.8465877174209462	0.0726227938266065	0.43120720578258365	0.9495794722938948	0.05809981461340775	0.4151666279795529	0.9828516528437694	0.014425954499434826	0.48490455418010436	0.9800621466587625
273	4.55	0.3052812722942854	0.6054261807703605	0.8488896991223075	0.28191322912831523	0.7379527507395658	1.2862981351165945	0.24956694307916938	0.9129530828865439	1.7043600765310574	0.22347854998483244	0.6846666829005568	1.7630620949236842	0.2879504490945421	0.7868247927486335	1.7875790403801497	0.21696923028341097	0.9752152612609456	1.7582637568740775	0.11532657769240282	0.5215873179793098	0.8303578103721013	0.07651271304819277	0.7039660200635629	1.2650462930738244	0.05949411639423995	0.9049083402883504	1.7011114104445642	0.050216447133495636	0.7437298296580885	1.786373442927144	-0.0021633538405707153	0.7304339588306225	1.7479541529006561	0.06266609757950994	1.013869732853671	1.7717776126083544	0.31045741069978233	0.42748170185395545	0.247907368437635	0.42443645132099583	0.3377410419201037	0.037061982536132604	0.40672112889917433	0.3369273836194253	0.16487202710076468	0.4398911854451333	0.5703409036495224	0.35189276214716336	0.4490412114811363	0.6640540680866479	0.6359142649443708	0.44924011438587164	0.6579303414639447	0.9033862761496554	0.4051621416396007	0.5949555438396271	0.9981706529848043	0.4175150080198604	0.5728558423509399	1.0100604074215587	0.4053254788148602	0.6461896150135698	1.0138686439516478	0.1224300021149299	0.413340724900029	0.3085722059846894	0.03494490203607366	0.47263602920418196	0.5789016107584052	0.04174299102856518	0.42128013281468746	0.8459375277014334	0.07407728001065988	0.43226646861052936	0.9494252061114472	0.05816877233870124	0.41517195602986706	0.9829258719550182	0.015449155109650656	0.48182399475270377	0.9813928689650262
274	4.566666666666666	0.30593885217649264	0.6056490256411793	0.8494216506729897	0.2825012369239344	0.7426392884296755	1.2854622301432581	0.25109135780155084	0.9130172350985678	1.703645591903781	0.22345035056067644	0.6848333470539966	1.762181144386206	0.2885663999780441	0.7875014615185509	1.7878500105945871	0.21748665649878338	0.9748076182491167	1.7575185498915058	0.11574031693070154	0.5230637664563509	0.8306480052428393	0.07770312146431774	0.7040641134518426	1.2660315687842516	0.05889907290078038	0.9031236268797487	1.7009339270998027	0.05025389363874375	0.7434517696155516	1.786486635377834	-0.0021812402714701308	0.7300992590486626	1.7477561582347618	0.06248149324674572	1.0133085361848437	1.7728690398487967	0.3103356968932423	0.42725221910188205	0.24820094321759092	0.4243678176082707	0.3375689865521306	0.037204837625197384	0.40670153738391196	0.3368334062868098	0.16450695145180477	0.44082482037880216	0.5738059554564031	0.3517432205221818	0.45008072360986623	0.6637933143622742	0.636020980422794	0.4552772815744147	0.6464080167773448	0.9021304229499615	0.4086081436416476	0.5862152474081299	0.9956082004727127	0.42108978587654017	0.5618605343841715	1.007698768375951	0.4068237403312295	0.6401080059812456	1.0125531387816227	0.12312824723343416	0.4162176643575333	0.3082936009446958	0.03660752157462513	0.47883716221234984	0.5789891647173124	0.042956761223280765	0.41761168009576605	0.8464584762876024	0.07472416819401506	0.43342254900755334	0.949979680765987	0.058205402693424	0.4151818727988126	0.9830665161978631	0.01692834997413785	0.47799324571279234	0.983296806340243
275	4.583333333333333	0.30831528697962785	0.6041717069379319	0.8504577833999063	0.2838654252114777	0.7462748912889599	1.2871877424068807	0.25227693264351336	0.9134719936480269	1.7029879102074708	0.22336325141239738	0.6850906113481978	1.7609297743789927	0.28967934090136876	0.7879796608793401	1.7878667638674222	0.21814686214650592	0.9749391331955665	1.756858599853767	0.1165191576594294	0.5263440821247826	0.8310051934821224	0.07943631374536547	0.7041723345313919	1.2669281572435878	0.05788490121861532	0.8990788607068166	1.7002594435285587	0.0500861732651618	0.7436249503237119	1.7867792192971592	-0.002205430546097075	0.729763972938122	1.7475528819113813	0.0623760677774869	1.0128164836656395	1.7739435100098617	0.310257255050191	0.426935813473618	0.24840598275192036	0.4243457555189455	0.337582198565042	0.037346654900568564	0.4067252958134753	0.3370457626837864	0.16494060560078005	0.4422712531155536	0.5781746665911817	0.3515107813086705	0.4517642719755688	0.66375052548277	0.6363412883164695	0.46005349165414805	0.6393693104669493	0.901349933876364	0.4111846728940026	0.5814912984004146	0.9939141733850995	0.4236185474114117	0.5561304773755837	1.0062806400807436	0.4087687662039417	0.6352241158063856	1.011402717394984	0.12329838627194156	0.41721638689412144	0.308207252341748	0.03886353044071012	0.48665138934916413	0.5789322506817268	0.04466020181262638	0.41296366207219015	0.8483094941746662	0.07516113285223362	0.4340553655377668	0.9507178977926211	0.058240447740463525	0.41523978500799913	0.9834488186154203	0.018812445714516342	0.47437794531988486	0.9838679616611806
